<svg xmlns="http://www.w3.org/2000/svg" xmlns:xlink="http://www.w3.org/1999/xlink" width="500" zoomAndPan="magnify" viewBox="0 0 375 374.999991" height="500" preserveAspectRatio="xMidYMid meet" version="1.0"><defs><g/><clipPath id="3dc6c022a9"><path d="M 129 95.238281 L 246 95.238281 L 246 198 L 129 198 Z M 129 95.238281 " clip-rule="nonzero"/></clipPath><clipPath id="97bb6468ab"><path d="M 104.199219 195 L 270.699219 195 L 270.699219 199.488281 L 104.199219 199.488281 Z M 104.199219 195 " clip-rule="nonzero"/></clipPath></defs><path fill="#808080" d="M 189.105469 107.875 L 188.816406 107.375 L 186.082031 107.375 L 185.792969 107.875 Z M 189.105469 107.875 " fill-opacity="1" fill-rule="evenodd"/><path fill="#808080" d="M 191.042969 111.25 L 190.753906 110.75 L 184.140625 110.75 L 183.851562 111.25 Z M 191.042969 111.25 " fill-opacity="1" fill-rule="evenodd"/><path fill="#808080" d="M 192.984375 114.625 L 192.695312 114.121094 L 182.203125 114.121094 L 181.914062 114.625 Z M 192.984375 114.625 " fill-opacity="1" fill-rule="evenodd"/><path fill="#808080" d="M 194.925781 117.996094 L 194.636719 117.496094 L 180.261719 117.496094 L 179.972656 117.996094 Z M 194.925781 117.996094 " fill-opacity="1" fill-rule="evenodd"/><path fill="#808080" d="M 196.863281 121.371094 L 196.574219 120.871094 L 178.320312 120.871094 L 178.035156 121.371094 Z M 196.863281 121.371094 " fill-opacity="1" fill-rule="evenodd"/><path fill="#808080" d="M 198.800781 124.746094 L 198.515625 124.242188 L 176.382812 124.242188 L 176.09375 124.746094 Z M 198.800781 124.746094 " fill-opacity="1" fill-rule="evenodd"/><path fill="#808080" d="M 200.742188 128.117188 L 200.453125 127.617188 L 174.441406 127.617188 L 174.152344 128.117188 Z M 200.742188 128.117188 " fill-opacity="1" fill-rule="evenodd"/><path fill="#808080" d="M 202.683594 131.492188 L 202.394531 130.992188 L 172.503906 130.992188 L 172.214844 131.492188 Z M 202.683594 131.492188 " fill-opacity="1" fill-rule="evenodd"/><path fill="#808080" d="M 204.621094 134.867188 L 204.335938 134.363281 L 170.5625 134.363281 L 170.273438 134.867188 Z M 204.621094 134.867188 " fill-opacity="1" fill-rule="evenodd"/><path fill="#808080" d="M 206.5625 138.238281 L 206.273438 137.738281 L 168.625 137.738281 L 168.335938 138.238281 Z M 206.5625 138.238281 " fill-opacity="1" fill-rule="evenodd"/><path fill="#808080" d="M 208.5 141.613281 L 208.214844 141.113281 L 166.683594 141.113281 L 166.394531 141.613281 Z M 208.5 141.613281 " fill-opacity="1" fill-rule="evenodd"/><path fill="#808080" d="M 210.441406 144.988281 L 210.152344 144.484375 L 164.742188 144.484375 L 164.457031 144.988281 Z M 210.441406 144.988281 " fill-opacity="1" fill-rule="evenodd"/><path fill="#808080" d="M 212.382812 148.359375 L 212.09375 147.859375 L 162.804688 147.859375 L 162.515625 148.359375 Z M 212.382812 148.359375 " fill-opacity="1" fill-rule="evenodd"/><path fill="#808080" d="M 214.320312 151.734375 L 214.03125 151.234375 L 160.863281 151.234375 L 160.574219 151.734375 Z M 214.320312 151.734375 " fill-opacity="1" fill-rule="evenodd"/><path fill="#808080" d="M 216.261719 155.109375 L 215.972656 154.605469 L 158.925781 154.605469 L 158.636719 155.109375 Z M 216.261719 155.109375 " fill-opacity="1" fill-rule="evenodd"/><path fill="#808080" d="M 218.199219 158.480469 L 217.914062 157.980469 L 156.984375 157.980469 L 156.695312 158.480469 Z M 218.199219 158.480469 " fill-opacity="1" fill-rule="evenodd"/><path fill="#808080" d="M 220.140625 161.855469 L 219.851562 161.355469 L 155.042969 161.355469 L 154.757812 161.855469 Z M 220.140625 161.855469 " fill-opacity="1" fill-rule="evenodd"/><path fill="#808080" d="M 222.078125 165.230469 L 221.792969 164.726562 L 153.105469 164.726562 L 152.816406 165.230469 Z M 222.078125 165.230469 " fill-opacity="1" fill-rule="evenodd"/><path fill="#808080" d="M 224.019531 168.601562 L 223.730469 168.101562 L 151.164062 168.101562 L 150.878906 168.601562 Z M 224.019531 168.601562 " fill-opacity="1" fill-rule="evenodd"/><path fill="#808080" d="M 225.960938 171.976562 L 225.671875 171.476562 L 149.226562 171.476562 L 148.9375 171.976562 Z M 225.960938 171.976562 " fill-opacity="1" fill-rule="evenodd"/><path fill="#808080" d="M 227.898438 175.351562 L 227.609375 174.847656 L 147.285156 174.847656 L 146.996094 175.351562 Z M 227.898438 175.351562 " fill-opacity="1" fill-rule="evenodd"/><path fill="#808080" d="M 229.839844 178.722656 L 229.550781 178.222656 L 145.347656 178.222656 L 145.058594 178.722656 Z M 229.839844 178.722656 " fill-opacity="1" fill-rule="evenodd"/><path fill="#808080" d="M 231.777344 182.097656 L 231.488281 181.597656 L 143.40625 181.597656 L 143.117188 182.097656 Z M 231.777344 182.097656 " fill-opacity="1" fill-rule="evenodd"/><path fill="#808080" d="M 233.71875 185.472656 L 233.429688 184.96875 L 141.46875 184.96875 L 141.179688 185.472656 Z M 233.71875 185.472656 " fill-opacity="1" fill-rule="evenodd"/><path fill="#808080" d="M 235.660156 188.84375 L 235.371094 188.34375 L 139.527344 188.34375 L 139.238281 188.84375 Z M 235.660156 188.84375 " fill-opacity="1" fill-rule="evenodd"/><path fill="#808080" d="M 237.597656 192.21875 L 237.308594 191.71875 L 137.585938 191.71875 L 137.300781 192.21875 Z M 237.597656 192.21875 " fill-opacity="1" fill-rule="evenodd"/><path fill="#ffffff" d="M 165.886719 157.980469 L 208.46875 157.980469 L 208.46875 195.496094 L 165.886719 195.496094 Z M 165.886719 157.980469 " fill-opacity="1" fill-rule="evenodd"/><path fill="#ffffff" d="M 178.09375 124.308594 L 196.800781 124.308594 L 196.800781 143.914062 L 178.09375 143.914062 Z M 178.09375 124.308594 " fill-opacity="1" fill-rule="evenodd"/><g clip-path="url(#3dc6c022a9)"><path fill="#1a1a1a" d="M 186.882812 104.015625 L 133.15625 197.457031 L 134.003906 197.949219 L 187.449219 104.996094 L 240.890625 197.949219 L 241.738281 197.457031 L 188.011719 104.015625 L 187.449219 103.035156 Z M 188.296875 103.523438 L 242.160156 197.214844 L 245.125 195.496094 L 190.269531 100.089844 L 189.707031 99.105469 L 189.425781 98.617188 L 187.449219 95.179688 L 185.472656 98.617188 L 185.191406 99.105469 L 184.625 100.089844 L 129.769531 195.496094 L 132.734375 197.214844 L 186.601562 103.523438 L 187.164062 102.542969 L 187.449219 102.050781 L 187.730469 102.542969 Z M 188.296875 103.523438 " fill-opacity="1" fill-rule="evenodd"/></g><g clip-path="url(#97bb6468ab)"><path fill="#1a1a1a" d="M 106.628906 195.496094 L 268.265625 195.496094 C 269.546875 195.496094 270.597656 196.546875 270.597656 197.832031 L 270.597656 200.171875 L 104.300781 200.171875 L 104.300781 197.832031 C 104.300781 196.546875 105.347656 195.496094 106.628906 195.496094 " fill-opacity="1" fill-rule="evenodd"/></g><path fill="#1a1a1a" d="M 196.074219 125.039062 L 187.8125 125.039062 L 187.8125 143.183594 L 196.074219 143.183594 Z M 195.460938 125.65625 L 188.425781 125.65625 L 188.425781 142.566406 L 195.460938 142.566406 Z M 188.21875 125.242188 L 195.871094 125.242188 L 195.871094 142.980469 L 188.015625 142.980469 L 188.015625 125.242188 Z M 187.085938 143.183594 L 187.085938 125.039062 L 178.820312 125.039062 L 178.820312 143.183594 Z M 179.230469 125.242188 L 186.882812 125.242188 L 186.882812 142.980469 L 179.023438 142.980469 L 179.023438 125.242188 Z M 186.46875 125.65625 L 179.4375 125.65625 L 179.4375 142.566406 L 186.46875 142.566406 Z M 187.449219 124.308594 L 196.800781 124.308594 L 196.800781 143.914062 L 178.09375 143.914062 L 178.09375 124.308594 Z M 187.449219 124.308594 " fill-opacity="1" fill-rule="nonzero"/><path fill="#1a1a1a" d="M 186.121094 127.195312 L 186.121094 125.996094 L 179.765625 125.996094 L 179.765625 133.578125 Z M 186.121094 132.546875 L 186.121094 131.386719 L 179.765625 137.769531 L 179.765625 138.929688 Z M 186.121094 142.226562 L 186.121094 134.644531 L 179.765625 141.027344 L 179.765625 142.226562 Z M 186.121094 142.226562 " fill-opacity="1" fill-rule="evenodd"/><path fill="#1a1a1a" d="M 195.128906 127.195312 L 195.128906 125.996094 L 188.777344 125.996094 L 188.777344 133.578125 Z M 195.128906 132.546875 L 195.128906 131.386719 L 188.777344 137.769531 L 188.777344 138.929688 Z M 195.128906 142.226562 L 195.128906 134.644531 L 188.777344 141.027344 L 188.777344 142.226562 Z M 195.128906 142.226562 " fill-opacity="1" fill-rule="evenodd"/><path fill="#332c2b" d="M 194.222656 162.574219 L 188.710938 162.574219 L 188.710938 178.183594 L 194.222656 178.183594 Z M 200.171875 162.574219 L 194.65625 162.574219 L 194.65625 178.183594 L 200.171875 178.183594 Z M 188.710938 194.226562 L 194.222656 194.226562 L 194.222656 178.621094 L 188.710938 178.621094 Z M 194.65625 194.226562 L 200.171875 194.226562 L 200.171875 178.621094 L 194.65625 178.621094 Z M 200.386719 194.664062 L 188.273438 194.664062 L 188.273438 162.136719 L 200.605469 162.136719 L 200.605469 194.664062 Z M 173.828125 195.128906 L 187.085938 195.128906 L 187.085938 161.671875 L 173.828125 161.671875 Z M 187.085938 195.859375 L 173.101562 195.859375 L 173.101562 160.941406 L 201.796875 160.941406 L 201.796875 195.859375 Z M 186.1875 162.574219 L 180.675781 162.574219 L 180.675781 178.183594 L 186.1875 178.183594 Z M 180.238281 162.574219 L 174.726562 162.574219 L 174.726562 178.183594 L 180.238281 178.183594 Z M 180.675781 194.226562 L 186.1875 194.226562 L 186.1875 178.621094 L 180.675781 178.621094 Z M 180.238281 194.664062 L 174.289062 194.664062 L 174.289062 162.136719 L 186.621094 162.136719 L 186.621094 194.664062 Z M 174.726562 194.226562 L 180.238281 194.226562 L 180.238281 178.621094 L 174.726562 178.621094 Z M 187.8125 195.128906 L 201.070312 195.128906 L 201.070312 161.671875 L 187.8125 161.671875 Z M 187.8125 195.128906 " fill-opacity="1" fill-rule="nonzero"/><path fill="#1a1a1a" d="M 179.855469 164.078125 L 179.855469 162.960938 L 175.109375 162.960938 L 175.109375 168.84375 Z M 179.855469 169.640625 L 179.855469 168.625 L 175.109375 173.386719 L 175.109375 174.402344 Z M 179.855469 177.796875 L 179.855469 171.914062 L 175.109375 176.675781 L 175.109375 177.796875 Z M 179.855469 177.796875 " fill-opacity="1" fill-rule="evenodd"/><path fill="#1a1a1a" d="M 185.8125 164.078125 L 185.8125 162.960938 L 181.070312 162.960938 L 181.070312 168.84375 Z M 185.8125 169.640625 L 185.8125 168.625 L 181.070312 173.386719 L 181.070312 174.402344 Z M 185.8125 177.796875 L 185.8125 171.914062 L 181.070312 176.675781 L 181.070312 177.796875 Z M 185.8125 177.796875 " fill-opacity="1" fill-rule="evenodd"/><path fill="#1a1a1a" d="M 193.835938 164.078125 L 193.835938 162.960938 L 189.09375 162.960938 L 189.09375 168.84375 Z M 193.835938 169.640625 L 193.835938 168.625 L 189.09375 173.386719 L 189.09375 174.402344 Z M 193.835938 177.796875 L 193.835938 171.914062 L 189.09375 176.675781 L 189.09375 177.796875 Z M 193.835938 177.796875 " fill-opacity="1" fill-rule="evenodd"/><path fill="#1a1a1a" d="M 199.796875 164.078125 L 199.796875 162.960938 L 195.054688 162.960938 L 195.054688 168.84375 Z M 199.796875 169.640625 L 199.796875 168.625 L 195.054688 173.386719 L 195.054688 174.402344 Z M 199.796875 177.796875 L 199.796875 171.914062 L 195.054688 176.675781 L 195.054688 177.796875 Z M 199.796875 177.796875 " fill-opacity="1" fill-rule="evenodd"/><path fill="#1a1a1a" d="M 179.855469 180.121094 L 179.855469 179 L 175.109375 179 L 175.109375 184.886719 Z M 179.855469 185.683594 L 179.855469 184.667969 L 175.109375 189.429688 L 175.109375 190.445312 Z M 179.855469 193.839844 L 179.855469 187.953125 L 175.109375 192.71875 L 175.109375 193.839844 Z M 179.855469 193.839844 " fill-opacity="1" fill-rule="evenodd"/><path fill="#1a1a1a" d="M 185.8125 180.121094 L 185.8125 179 L 181.070312 179 L 181.070312 184.886719 Z M 185.8125 185.683594 L 185.8125 184.667969 L 181.070312 189.429688 L 181.070312 190.445312 Z M 185.8125 193.839844 L 185.8125 187.953125 L 181.070312 192.71875 L 181.070312 193.839844 Z M 185.8125 193.839844 " fill-opacity="1" fill-rule="evenodd"/><path fill="#1a1a1a" d="M 193.835938 180.121094 L 193.835938 179 L 189.09375 179 L 189.09375 184.886719 Z M 193.835938 185.683594 L 193.835938 184.667969 L 189.09375 189.429688 L 189.09375 190.445312 Z M 193.835938 193.839844 L 193.835938 187.953125 L 189.09375 192.71875 L 189.09375 193.839844 Z M 193.835938 193.839844 " fill-opacity="1" fill-rule="evenodd"/><path fill="#1a1a1a" d="M 199.796875 180.121094 L 199.796875 179 L 195.054688 179 L 195.054688 184.886719 Z M 199.796875 185.683594 L 199.796875 184.667969 L 195.054688 189.429688 L 195.054688 190.445312 Z M 199.796875 193.839844 L 199.796875 187.953125 L 195.054688 192.71875 L 195.054688 193.839844 Z M 199.796875 193.839844 " fill-opacity="1" fill-rule="evenodd"/><path fill="#1a1a1a" d="M 161.886719 155.765625 L 213.011719 155.765625 L 213.011719 156.90625 L 213.589844 156.90625 C 213.902344 156.90625 214.15625 157.164062 214.15625 157.476562 L 214.15625 158.046875 L 160.738281 158.046875 L 160.738281 157.476562 C 160.738281 157.164062 160.996094 156.90625 161.308594 156.90625 L 161.886719 156.90625 Z M 161.886719 155.765625 " fill-opacity="1" fill-rule="evenodd"/><path fill="#1a1a1a" d="M 164.066406 157.273438 L 166.425781 157.273438 L 166.425781 196.390625 L 164.066406 196.390625 Z M 164.066406 157.273438 " fill-opacity="1" fill-rule="evenodd"/><path fill="#1a1a1a" d="M 208.46875 157.273438 L 210.832031 157.273438 L 210.832031 196.390625 L 208.46875 196.390625 Z M 208.46875 157.273438 " fill-opacity="1" fill-rule="evenodd"/><path fill="#ffffff" d="M 155.089844 181.515625 L 156.722656 181.515625 L 156.722656 196.011719 L 155.089844 196.011719 Z M 155.089844 181.515625 " fill-opacity="1" fill-rule="evenodd"/><path fill="#ffffff" d="M 170.753906 181.515625 L 172.386719 181.515625 L 172.386719 196.011719 L 170.753906 196.011719 Z M 170.753906 181.515625 " fill-opacity="1" fill-rule="evenodd"/><path fill="#ffffff" d="M 186.414062 181.515625 L 188.050781 181.515625 L 188.050781 196.011719 L 186.414062 196.011719 Z M 186.414062 181.515625 " fill-opacity="1" fill-rule="evenodd"/><path fill="#ffffff" d="M 202.082031 181.515625 L 203.714844 181.515625 L 203.714844 196.011719 L 202.082031 196.011719 Z M 202.082031 181.515625 " fill-opacity="1" fill-rule="evenodd"/><path fill="#ffffff" d="M 217.742188 181.515625 L 219.378906 181.515625 L 219.378906 196.011719 L 217.742188 196.011719 Z M 217.742188 181.515625 " fill-opacity="1" fill-rule="evenodd"/><path fill="#ffffff" d="M 153.460938 181.515625 L 221.003906 181.515625 L 221.003906 182.0625 L 153.460938 182.0625 Z M 153.460938 181.515625 " fill-opacity="1" fill-rule="evenodd"/><path fill="#ffffff" d="M 153.460938 185.003906 L 221.003906 185.003906 L 221.003906 185.550781 L 153.460938 185.550781 Z M 153.460938 185.003906 " fill-opacity="1" fill-rule="evenodd"/><path fill="#ffffff" d="M 153.460938 188.492188 L 221.003906 188.492188 L 221.003906 189.039062 L 153.460938 189.039062 Z M 153.460938 188.492188 " fill-opacity="1" fill-rule="evenodd"/><path fill="#ffffff" d="M 153.460938 191.976562 L 221.003906 191.976562 L 221.003906 192.527344 L 153.460938 192.527344 Z M 153.460938 191.976562 " fill-opacity="1" fill-rule="evenodd"/><path fill="#1a1a1a" d="M 155.304688 181.890625 L 156.9375 181.890625 L 156.9375 196.390625 L 155.304688 196.390625 Z M 155.304688 181.890625 " fill-opacity="1" fill-rule="evenodd"/><path fill="#1a1a1a" d="M 170.96875 181.890625 L 172.601562 181.890625 L 172.601562 196.390625 L 170.96875 196.390625 Z M 170.96875 181.890625 " fill-opacity="1" fill-rule="evenodd"/><path fill="#1a1a1a" d="M 186.632812 181.890625 L 188.265625 181.890625 L 188.265625 196.390625 L 186.632812 196.390625 Z M 186.632812 181.890625 " fill-opacity="1" fill-rule="evenodd"/><path fill="#1a1a1a" d="M 202.296875 181.890625 L 203.929688 181.890625 L 203.929688 196.390625 L 202.296875 196.390625 Z M 202.296875 181.890625 " fill-opacity="1" fill-rule="evenodd"/><path fill="#1a1a1a" d="M 217.960938 181.890625 L 219.59375 181.890625 L 219.59375 196.390625 L 217.960938 196.390625 Z M 217.960938 181.890625 " fill-opacity="1" fill-rule="evenodd"/><path fill="#1a1a1a" d="M 153.675781 181.890625 L 221.21875 181.890625 L 221.21875 182.4375 L 153.675781 182.4375 Z M 153.675781 181.890625 " fill-opacity="1" fill-rule="evenodd"/><path fill="#1a1a1a" d="M 153.675781 185.378906 L 221.21875 185.378906 L 221.21875 185.925781 L 153.675781 185.925781 Z M 153.675781 185.378906 " fill-opacity="1" fill-rule="evenodd"/><path fill="#1a1a1a" d="M 153.675781 188.867188 L 221.21875 188.867188 L 221.21875 189.414062 L 153.675781 189.414062 Z M 153.675781 188.867188 " fill-opacity="1" fill-rule="evenodd"/><path fill="#1a1a1a" d="M 153.675781 192.355469 L 221.21875 192.355469 L 221.21875 192.902344 L 153.675781 192.902344 Z M 153.675781 192.355469 " fill-opacity="1" fill-rule="evenodd"/><path fill="#1a1a1a" d="M 126.519531 181.4375 C 126.519531 181.4375 126.515625 181.4375 126.515625 181.433594 C 126.515625 181.433594 126.515625 181.4375 126.519531 181.4375 M 112.949219 172.988281 C 115.269531 170.230469 116 165.960938 116 165.960938 C 114.753906 168.246094 116.167969 162.816406 114.367188 165.273438 C 112.566406 167.730469 114.238281 163.722656 113.292969 164.929688 C 112.351562 166.132812 112.179688 164.929688 112.179688 164.929688 C 114.195312 162.816406 117.414062 157.082031 116.941406 157.429688 C 116.46875 157.773438 115.910156 157.644531 115.910156 157.644531 C 118.402344 153.289062 120.164062 146.179688 120.164062 146.179688 C 120.164062 146.179688 121.921875 153.289062 124.414062 157.644531 C 124.414062 157.644531 123.855469 157.773438 123.382812 157.429688 C 122.910156 157.082031 126.128906 162.816406 128.148438 164.929688 C 128.148438 164.929688 127.972656 166.132812 127.03125 164.929688 C 126.085938 163.722656 127.761719 167.730469 125.957031 165.273438 C 124.15625 162.816406 125.570312 168.246094 124.328125 165.960938 C 124.328125 165.960938 125.054688 170.230469 127.375 172.988281 C 127.375 172.988281 127.976562 173.847656 126.601562 172.988281 C 125.230469 172.125 129.21875 177.855469 132.4375 180.355469 C 132.4375 180.355469 131.964844 181.175781 130.808594 180.355469 C 129.648438 179.539062 131.75 182.769531 129.734375 180.742188 C 127.71875 178.71875 129.046875 181.953125 127.546875 180.011719 C 126.046875 178.074219 127.5 183.191406 126.519531 181.4375 C 126.628906 181.636719 129.894531 187.464844 131.753906 189.667969 C 131.753906 189.667969 130.710938 190.089844 130.152344 189.816406 C 131.039062 193.136719 131.457031 193.367188 134.691406 196.242188 L 105.632812 196.242188 C 108.867188 193.367188 109.285156 193.136719 110.171875 189.816406 C 109.617188 190.089844 108.570312 189.667969 108.570312 189.667969 C 110.429688 187.464844 113.695312 181.636719 113.804688 181.4375 C 112.824219 183.191406 114.28125 178.074219 112.777344 180.011719 C 111.277344 181.953125 112.605469 178.71875 110.589844 180.742188 C 108.574219 182.769531 110.675781 179.539062 109.515625 180.355469 C 108.359375 181.175781 107.886719 180.355469 107.886719 180.355469 C 111.105469 177.855469 115.09375 172.125 113.722656 172.988281 C 112.347656 173.847656 112.949219 172.988281 112.949219 172.988281 Z M 113.804688 181.4375 C 113.808594 181.4375 113.808594 181.4375 113.808594 181.433594 C 113.808594 181.433594 113.808594 181.4375 113.804688 181.4375 Z M 110.171875 189.816406 C 110.300781 189.753906 110.402344 189.648438 110.460938 189.496094 C 110.511719 189.351562 110.40625 189.480469 110.171875 189.816406 Z M 130.152344 189.816406 C 130.023438 189.753906 129.921875 189.648438 129.863281 189.496094 C 129.8125 189.351562 129.917969 189.480469 130.152344 189.816406 Z M 130.152344 189.816406 " fill-opacity="1" fill-rule="evenodd"/><path fill="#1a1a1a" d="M 261.089844 181.4375 C 261.089844 181.4375 261.089844 181.4375 261.085938 181.433594 C 261.085938 181.433594 261.089844 181.4375 261.089844 181.4375 M 247.523438 172.988281 C 249.839844 170.230469 250.570312 165.960938 250.570312 165.960938 C 249.324219 168.246094 250.742188 162.816406 248.9375 165.273438 C 247.136719 167.730469 248.808594 163.722656 247.867188 164.929688 C 246.921875 166.132812 246.75 164.929688 246.75 164.929688 C 248.765625 162.816406 251.984375 157.082031 251.515625 157.429688 C 251.042969 157.773438 250.484375 157.644531 250.484375 157.644531 C 252.972656 153.289062 254.734375 146.179688 254.734375 146.179688 C 254.734375 146.179688 256.492188 153.289062 258.984375 157.644531 C 258.984375 157.644531 258.425781 157.773438 257.953125 157.429688 C 257.480469 157.082031 260.703125 162.816406 262.71875 164.929688 C 262.71875 164.929688 262.546875 166.132812 261.601562 164.929688 C 260.65625 163.722656 262.332031 167.730469 260.527344 165.273438 C 258.726562 162.816406 260.144531 168.246094 258.898438 165.960938 C 258.898438 165.960938 259.628906 170.230469 261.945312 172.988281 C 261.945312 172.988281 262.546875 173.847656 261.171875 172.988281 C 259.800781 172.125 263.792969 177.855469 267.011719 180.355469 C 267.011719 180.355469 266.539062 181.175781 265.378906 180.355469 C 264.21875 179.539062 266.324219 182.769531 264.304688 180.742188 C 262.289062 178.71875 263.617188 181.953125 262.117188 180.011719 C 260.617188 178.074219 262.070312 183.191406 261.089844 181.4375 C 261.199219 181.636719 264.46875 187.464844 266.324219 189.667969 C 266.324219 189.667969 265.28125 190.089844 264.726562 189.816406 C 265.609375 193.136719 266.03125 193.367188 269.261719 196.242188 L 240.207031 196.242188 C 243.4375 193.367188 243.855469 193.136719 244.742188 189.816406 C 244.1875 190.089844 243.144531 189.667969 243.144531 189.667969 C 245 187.464844 248.265625 181.636719 248.378906 181.4375 C 247.394531 183.191406 248.851562 178.074219 247.351562 180.011719 C 245.847656 181.953125 247.179688 178.71875 245.160156 180.742188 C 243.144531 182.769531 245.246094 179.539062 244.089844 180.355469 C 242.929688 181.175781 242.457031 180.355469 242.457031 180.355469 C 245.675781 177.855469 249.667969 172.125 248.292969 172.988281 C 246.921875 173.847656 247.523438 172.988281 247.523438 172.988281 Z M 248.378906 181.4375 C 248.378906 181.4375 248.378906 181.4375 248.382812 181.433594 C 248.382812 181.433594 248.378906 181.4375 248.378906 181.4375 Z M 244.742188 189.816406 C 244.871094 189.753906 244.976562 189.648438 245.03125 189.496094 C 245.085938 189.351562 244.976562 189.480469 244.742188 189.816406 Z M 264.726562 189.816406 C 264.597656 189.753906 264.492188 189.648438 264.4375 189.496094 C 264.382812 189.351562 264.492188 189.480469 264.726562 189.816406 Z M 264.726562 189.816406 " fill-opacity="1" fill-rule="evenodd"/><path fill="#1a1a1a" d="M 146.835938 167.378906 C 144.664062 164.617188 143.972656 160.582031 143.972656 160.582031 C 145.21875 162.867188 143.800781 157.4375 145.605469 159.894531 C 147.40625 162.347656 145.734375 158.339844 146.679688 159.546875 C 147.621094 160.753906 147.792969 159.546875 147.792969 159.546875 C 145.777344 157.4375 142.558594 151.703125 143.03125 152.050781 C 143.503906 152.394531 144.0625 152.261719 144.0625 152.261719 C 141.570312 147.910156 139.8125 140.800781 139.8125 140.800781 C 139.8125 140.800781 138.050781 147.910156 135.558594 152.261719 C 135.558594 152.261719 136.117188 152.394531 136.589844 152.050781 C 137.0625 151.703125 133.84375 157.4375 131.824219 159.546875 C 131.824219 159.546875 132 160.753906 132.941406 159.546875 C 133.886719 158.339844 132.210938 162.351562 134.015625 159.894531 C 135.820312 157.4375 134.402344 162.867188 135.648438 160.582031 C 135.648438 160.582031 134.914062 164.847656 132.597656 167.605469 C 132.597656 167.605469 131.996094 168.46875 133.371094 167.605469 C 134.746094 166.746094 130.753906 172.476562 127.535156 174.976562 C 127.535156 174.976562 128.007812 175.796875 129.164062 174.976562 C 130.324219 174.15625 128.222656 177.390625 130.238281 175.363281 C 132.253906 173.339844 130.925781 176.570312 132.425781 174.632812 C 133.925781 172.695312 132.476562 177.796875 133.449219 176.066406 C 133.351562 176.238281 132.296875 178.121094 131.0625 180.121094 C 131.597656 180.652344 132.136719 181.140625 132.652344 181.542969 C 132.652344 181.542969 132.183594 182.359375 131.023438 181.542969 C 129.863281 180.722656 131.96875 183.957031 129.949219 181.929688 C 129.945312 181.921875 129.9375 181.917969 129.929688 181.910156 C 129.316406 182.84375 128.71875 183.695312 128.21875 184.285156 C 128.21875 184.285156 129.261719 184.710938 129.820312 184.4375 C 129.566406 185.378906 129.351562 186.074219 129.101562 186.652344 C 130.070312 188.226562 131.15625 189.886719 131.96875 190.851562 C 131.96875 190.851562 131.960938 190.855469 131.941406 190.863281 L 133.332031 190.863281 L 146.285156 168.328125 C 145.90625 167.675781 145.839844 167.351562 146.25 167.605469 C 146.378906 167.6875 146.492188 167.753906 146.589844 167.804688 Z M 133.449219 176.066406 C 133.453125 176.0625 133.453125 176.0625 133.453125 176.058594 C 133.453125 176.0625 133.453125 176.0625 133.449219 176.066406 Z M 133.449219 176.066406 " fill-opacity="1" fill-rule="evenodd"/><path fill="#1a1a1a" d="M 228.0625 167.378906 C 230.230469 164.617188 230.921875 160.582031 230.921875 160.582031 C 229.675781 162.867188 231.09375 157.4375 229.292969 159.894531 C 227.488281 162.347656 229.160156 158.339844 228.21875 159.546875 C 227.273438 160.753906 227.101562 159.546875 227.101562 159.546875 C 229.117188 157.4375 232.339844 151.703125 231.867188 152.050781 C 231.394531 152.394531 230.835938 152.261719 230.835938 152.261719 C 233.328125 147.910156 235.085938 140.800781 235.085938 140.800781 C 235.085938 140.800781 236.847656 147.910156 239.335938 152.261719 C 239.335938 152.261719 238.777344 152.394531 238.304688 152.050781 C 237.832031 151.703125 241.054688 157.4375 243.070312 159.546875 C 243.070312 159.546875 242.898438 160.753906 241.953125 159.546875 C 241.011719 158.339844 242.683594 162.351562 240.878906 159.894531 C 239.078125 157.4375 240.496094 162.867188 239.25 160.582031 C 239.25 160.582031 239.980469 164.847656 242.296875 167.605469 C 242.296875 167.605469 242.898438 168.46875 241.527344 167.605469 C 240.152344 166.746094 244.144531 172.476562 247.363281 174.976562 C 247.363281 174.976562 246.890625 175.796875 245.730469 174.976562 C 244.574219 174.15625 246.675781 177.390625 244.660156 175.363281 C 242.640625 173.335938 243.972656 176.570312 242.46875 174.632812 C 240.96875 172.695312 242.417969 177.796875 241.445312 176.066406 C 241.542969 176.238281 242.597656 178.121094 243.832031 180.121094 C 243.300781 180.652344 242.761719 181.140625 242.242188 181.542969 C 242.242188 181.542969 242.714844 182.359375 243.875 181.542969 C 245.03125 180.722656 242.929688 183.957031 244.945312 181.929688 C 244.953125 181.921875 244.960938 181.917969 244.964844 181.910156 C 245.578125 182.84375 246.179688 183.695312 246.675781 184.285156 C 246.675781 184.285156 245.632812 184.710938 245.078125 184.4375 C 245.328125 185.378906 245.542969 186.074219 245.796875 186.652344 C 244.824219 188.226562 243.738281 189.886719 242.925781 190.851562 C 242.925781 190.851562 242.9375 190.855469 242.953125 190.863281 L 241.5625 190.863281 L 228.609375 168.328125 C 228.988281 167.675781 229.054688 167.351562 228.648438 167.605469 C 228.515625 167.6875 228.40625 167.753906 228.308594 167.804688 Z M 241.445312 176.066406 C 241.445312 176.0625 241.441406 176.0625 241.441406 176.058594 C 241.441406 176.0625 241.445312 176.0625 241.445312 176.066406 Z M 241.445312 176.066406 " fill-opacity="1" fill-rule="evenodd"/><g fill="#1a1a1a" fill-opacity="1"><g transform="translate(91.706089, 235.250318)"><g><path d="M 17.109375 -17.625 C 17.066406 -18.957031 16.71875 -20.050781 16.0625 -20.90625 C 15.40625 -21.757812 14.546875 -22.390625 13.484375 -22.796875 C 12.429688 -23.210938 11.242188 -23.421875 9.921875 -23.421875 C 9.410156 -23.441406 8.832031 -23.367188 8.1875 -23.203125 C 7.539062 -23.046875 6.9375 -22.78125 6.375 -22.40625 C 5.8125 -22.039062 5.390625 -21.546875 5.109375 -20.921875 C 4.828125 -20.191406 4.8125 -19.410156 5.0625 -18.578125 C 5.3125 -17.753906 5.910156 -17.125 6.859375 -16.6875 C 7.785156 -16.300781 8.804688 -15.929688 9.921875 -15.578125 C 11.046875 -15.222656 12.160156 -14.835938 13.265625 -14.421875 C 14.378906 -14.015625 15.390625 -13.5 16.296875 -12.875 C 17.335938 -12.164062 18.109375 -11.328125 18.609375 -10.359375 C 19.117188 -9.398438 19.367188 -8.398438 19.359375 -7.359375 C 19.347656 -6.316406 19.09375 -5.300781 18.59375 -4.3125 C 18.101562 -3.332031 17.367188 -2.46875 16.390625 -1.71875 C 15.421875 -0.976562 14.332031 -0.429688 13.125 -0.078125 C 11.925781 0.273438 10.722656 0.453125 9.515625 0.453125 C 8.671875 0.453125 7.734375 0.332031 6.703125 0.09375 C 5.679688 -0.144531 4.6875 -0.488281 3.71875 -0.9375 C 2.75 -1.394531 1.898438 -1.9375 1.171875 -2.5625 C 1.035156 -2.664062 0.863281 -2.773438 0.65625 -2.890625 C 0.457031 -3.015625 0.238281 -3.039062 0 -2.96875 L 0.640625 -10.609375 L 0.9375 -10.609375 C 0.9375 -9.398438 1.007812 -8.316406 1.15625 -7.359375 C 1.3125 -6.398438 1.632812 -5.515625 2.125 -4.703125 C 2.625 -3.898438 3.40625 -3.128906 4.46875 -2.390625 C 5.238281 -1.847656 6.054688 -1.457031 6.921875 -1.21875 C 7.785156 -0.988281 8.691406 -0.875 9.640625 -0.875 C 10.847656 -0.875 11.882812 -1.117188 12.75 -1.609375 C 13.625 -2.109375 14.300781 -2.773438 14.78125 -3.609375 C 15.257812 -4.441406 15.5 -5.332031 15.5 -6.28125 C 15.5 -7.15625 15.28125 -7.894531 14.84375 -8.5 C 14.414062 -9.101562 13.863281 -9.617188 13.1875 -10.046875 C 12.519531 -10.484375 11.832031 -10.84375 11.125 -11.125 C 9.9375 -11.601562 8.722656 -12.015625 7.484375 -12.359375 C 6.242188 -12.703125 5.078125 -13.175781 3.984375 -13.78125 C 3.140625 -14.25 2.46875 -14.859375 1.96875 -15.609375 C 1.476562 -16.367188 1.171875 -17.179688 1.046875 -18.046875 C 0.929688 -18.910156 1.03125 -19.753906 1.34375 -20.578125 C 1.65625 -21.410156 2.195312 -22.148438 2.96875 -22.796875 C 3.789062 -23.492188 4.765625 -23.984375 5.890625 -24.265625 C 7.023438 -24.554688 8.144531 -24.703125 9.25 -24.703125 C 12.070312 -24.703125 14.429688 -24.015625 16.328125 -22.640625 C 16.523438 -22.515625 16.707031 -22.398438 16.875 -22.296875 C 17.050781 -22.203125 17.226562 -22.195312 17.40625 -22.28125 L 17.40625 -17.625 Z M 17.109375 -17.625 "/></g></g></g><g fill="#1a1a1a" fill-opacity="1"><g transform="translate(113.111698, 235.250318)"><g><path d="M 4.296875 -4.296875 C 4.296875 -3.484375 4.335938 -2.71875 4.421875 -2 C 4.515625 -1.289062 4.671875 -0.625 4.890625 0 L 0 0 C 0.238281 -0.625 0.394531 -1.289062 0.46875 -2 C 0.539062 -2.71875 0.578125 -3.484375 0.578125 -4.296875 C 0.578125 -4.835938 0.578125 -5.628906 0.578125 -6.671875 C 0.578125 -7.722656 0.578125 -8.894531 0.578125 -10.1875 C 0.578125 -11.476562 0.578125 -12.769531 0.578125 -14.0625 C 0.578125 -15.363281 0.578125 -16.535156 0.578125 -17.578125 C 0.578125 -18.617188 0.578125 -19.410156 0.578125 -19.953125 C 0.578125 -20.773438 0.539062 -21.546875 0.46875 -22.265625 C 0.394531 -22.992188 0.238281 -23.660156 0 -24.265625 L 4.890625 -24.265625 C 4.671875 -23.660156 4.515625 -22.992188 4.421875 -22.265625 C 4.335938 -21.546875 4.296875 -20.773438 4.296875 -19.953125 L 4.296875 -11.734375 L 15.109375 -11.734375 L 15.109375 -19.953125 C 15.109375 -20.773438 15.066406 -21.546875 14.984375 -22.265625 C 14.910156 -22.992188 14.753906 -23.660156 14.515625 -24.265625 L 19.40625 -24.265625 C 19.1875 -23.660156 19.035156 -22.992188 18.953125 -22.265625 C 18.867188 -21.546875 18.828125 -20.773438 18.828125 -19.953125 C 18.828125 -19.410156 18.828125 -18.617188 18.828125 -17.578125 C 18.828125 -16.535156 18.828125 -15.363281 18.828125 -14.0625 C 18.828125 -12.769531 18.828125 -11.476562 18.828125 -10.1875 C 18.828125 -8.894531 18.828125 -7.722656 18.828125 -6.671875 C 18.828125 -5.628906 18.828125 -4.835938 18.828125 -4.296875 C 18.828125 -3.484375 18.867188 -2.71875 18.953125 -2 C 19.035156 -1.289062 19.1875 -0.625 19.40625 0 L 14.515625 0 C 14.753906 -0.625 14.910156 -1.289062 14.984375 -2 C 15.066406 -2.71875 15.109375 -3.484375 15.109375 -4.296875 L 15.109375 -10.484375 L 4.296875 -10.484375 Z M 4.296875 -4.296875 "/></g></g></g><g fill="#1a1a1a" fill-opacity="1"><g transform="translate(134.549644, 235.250318)"><g><path d="M 0.578125 -19.953125 C 0.578125 -20.773438 0.539062 -21.546875 0.46875 -22.265625 C 0.394531 -22.992188 0.238281 -23.660156 0 -24.265625 L 4.890625 -24.265625 C 4.671875 -23.660156 4.515625 -22.992188 4.421875 -22.265625 C 4.335938 -21.546875 4.296875 -20.773438 4.296875 -19.953125 C 4.296875 -19.410156 4.296875 -18.617188 4.296875 -17.578125 C 4.296875 -16.535156 4.296875 -15.363281 4.296875 -14.0625 C 4.296875 -12.769531 4.296875 -11.476562 4.296875 -10.1875 C 4.296875 -8.894531 4.296875 -7.722656 4.296875 -6.671875 C 4.296875 -5.628906 4.296875 -4.835938 4.296875 -4.296875 C 4.296875 -3.484375 4.335938 -2.71875 4.421875 -2 C 4.515625 -1.289062 4.671875 -0.625 4.890625 0 L 0 0 C 0.238281 -0.625 0.394531 -1.289062 0.46875 -2 C 0.539062 -2.71875 0.578125 -3.484375 0.578125 -4.296875 Z M 0.578125 -19.953125 "/></g></g></g><g fill="#1a1a1a" fill-opacity="1"><g transform="translate(141.566097, 235.250318)"><g><path d="M 9.25 0 L 2 -19.953125 C 1.75 -20.691406 1.441406 -21.441406 1.078125 -22.203125 C 0.722656 -22.972656 0.363281 -23.660156 0 -24.265625 L 4.890625 -24.265625 C 4.910156 -23.703125 5.03125 -23.03125 5.25 -22.25 C 5.476562 -21.476562 5.722656 -20.734375 5.984375 -20.015625 L 12.546875 -1.875 L 19.109375 -20.015625 C 19.367188 -20.734375 19.378906 -21.457031 19.140625 -22.1875 C 18.910156 -22.914062 18.597656 -23.609375 18.203125 -24.265625 L 22.453125 -24.265625 C 22.097656 -23.660156 21.738281 -22.972656 21.375 -22.203125 C 21.007812 -21.441406 20.695312 -20.691406 20.4375 -19.953125 L 13.234375 0 Z M 9.25 0 "/></g></g></g><g fill="#1a1a1a" fill-opacity="1"><g transform="translate(166.108219, 235.250318)"><g><path d="M 13.234375 -24.265625 L 20.4375 -4.265625 C 20.695312 -3.554688 21.015625 -2.816406 21.390625 -2.046875 C 21.773438 -1.285156 22.140625 -0.601562 22.484375 0 L 17.5625 0 C 17.5625 -0.5625 17.445312 -1.226562 17.21875 -2 C 17 -2.78125 16.757812 -3.515625 16.5 -4.203125 C 16.21875 -5.023438 15.890625 -5.75 15.515625 -6.375 C 15.148438 -7 14.632812 -7.515625 13.96875 -7.921875 C 13.21875 -8.398438 12.367188 -8.71875 11.421875 -8.875 C 10.472656 -9.039062 9.519531 -9.050781 8.5625 -8.90625 C 7.613281 -8.769531 6.765625 -8.472656 6.015625 -8.015625 C 5.265625 -7.585938 4.703125 -7.054688 4.328125 -6.421875 C 3.960938 -5.785156 3.628906 -5.066406 3.328125 -4.265625 C 2.921875 -3.128906 3.222656 -1.707031 4.234375 0 L 0 0 C 0.363281 -0.601562 0.722656 -1.285156 1.078125 -2.046875 C 1.441406 -2.816406 1.75 -3.554688 2 -4.265625 L 9.21875 -24.265625 Z M 14.8125 -8.890625 L 9.890625 -22.375 L 5.015625 -8.890625 C 5.960938 -9.492188 7.007812 -9.898438 8.15625 -10.109375 C 9.3125 -10.316406 10.472656 -10.316406 11.640625 -10.109375 C 12.804688 -9.898438 13.863281 -9.492188 14.8125 -8.890625 Z M 14.8125 -8.890625 "/></g></g></g><g fill="#1a1a1a" fill-opacity="1"><g transform="translate(190.618014, 235.250318)"><g><path d="M 4.296875 -19.953125 L 4.296875 -1.265625 L 11.734375 -1.265625 C 12.710938 -1.265625 13.488281 -1.421875 14.0625 -1.734375 C 14.644531 -2.046875 15.085938 -2.394531 15.390625 -2.78125 C 15.691406 -3.164062 15.890625 -3.46875 15.984375 -3.6875 L 16.265625 -3.6875 L 16.046875 0 L 0 0 C 0.238281 -0.625 0.394531 -1.289062 0.46875 -2 C 0.539062 -2.71875 0.578125 -3.484375 0.578125 -4.296875 C 0.578125 -4.835938 0.578125 -5.628906 0.578125 -6.671875 C 0.578125 -7.722656 0.578125 -8.894531 0.578125 -10.1875 C 0.578125 -11.476562 0.578125 -12.769531 0.578125 -14.0625 C 0.578125 -15.363281 0.578125 -16.535156 0.578125 -17.578125 C 0.578125 -18.617188 0.578125 -19.410156 0.578125 -19.953125 C 0.578125 -20.773438 0.539062 -21.546875 0.46875 -22.265625 C 0.394531 -22.992188 0.238281 -23.660156 0 -24.265625 L 4.890625 -24.265625 C 4.671875 -23.660156 4.515625 -22.992188 4.421875 -22.265625 C 4.335938 -21.546875 4.296875 -20.773438 4.296875 -19.953125 Z M 4.296875 -19.953125 "/></g></g></g><g fill="#1a1a1a" fill-opacity="1"><g transform="translate(208.98412, 235.250318)"><g><path d="M 13.234375 -24.265625 L 20.4375 -4.265625 C 20.695312 -3.554688 21.015625 -2.816406 21.390625 -2.046875 C 21.773438 -1.285156 22.140625 -0.601562 22.484375 0 L 17.5625 0 C 17.5625 -0.5625 17.445312 -1.226562 17.21875 -2 C 17 -2.78125 16.757812 -3.515625 16.5 -4.203125 C 16.21875 -5.023438 15.890625 -5.75 15.515625 -6.375 C 15.148438 -7 14.632812 -7.515625 13.96875 -7.921875 C 13.21875 -8.398438 12.367188 -8.71875 11.421875 -8.875 C 10.472656 -9.039062 9.519531 -9.050781 8.5625 -8.90625 C 7.613281 -8.769531 6.765625 -8.472656 6.015625 -8.015625 C 5.265625 -7.585938 4.703125 -7.054688 4.328125 -6.421875 C 3.960938 -5.785156 3.628906 -5.066406 3.328125 -4.265625 C 2.921875 -3.128906 3.222656 -1.707031 4.234375 0 L 0 0 C 0.363281 -0.601562 0.722656 -1.285156 1.078125 -2.046875 C 1.441406 -2.816406 1.75 -3.554688 2 -4.265625 L 9.21875 -24.265625 Z M 14.8125 -8.890625 L 9.890625 -22.375 L 5.015625 -8.890625 C 5.960938 -9.492188 7.007812 -9.898438 8.15625 -10.109375 C 9.3125 -10.316406 10.472656 -10.316406 11.640625 -10.109375 C 12.804688 -9.898438 13.863281 -9.492188 14.8125 -8.890625 Z M 14.8125 -8.890625 "/></g></g></g><g fill="#1a1a1a" fill-opacity="1"><g transform="translate(233.493915, 235.250318)"><g><path d="M 13.125 -13.421875 L 13.125 -4.296875 C 13.125 -3.484375 13.164062 -2.71875 13.25 -2 C 13.34375 -1.289062 13.5 -0.625 13.71875 0 L 8.828125 0 C 9.066406 -0.625 9.21875 -1.289062 9.28125 -2 C 9.34375 -2.71875 9.375 -3.484375 9.375 -4.296875 L 9.375 -11.546875 L 3.015625 -20.703125 C 2.640625 -21.242188 2.160156 -21.863281 1.578125 -22.5625 C 1.003906 -23.257812 0.476562 -23.828125 0 -24.265625 L 5.4375 -24.265625 C 5.695312 -23.679688 5.957031 -23.164062 6.21875 -22.71875 C 6.488281 -22.28125 6.796875 -21.8125 7.140625 -21.3125 L 12.125 -14.171875 L 17.71875 -21.03125 C 18.0625 -21.519531 18.40625 -22.035156 18.75 -22.578125 C 19.101562 -23.117188 19.421875 -23.679688 19.703125 -24.265625 L 22.546875 -24.265625 C 21.660156 -23.460938 20.921875 -22.738281 20.328125 -22.09375 C 19.734375 -21.445312 19.070312 -20.679688 18.34375 -19.796875 Z M 13.125 -13.421875 "/></g></g></g><g fill="#1a1a1a" fill-opacity="1"><g transform="translate(258.13305, 235.250318)"><g><path d="M 13.234375 -24.265625 L 20.4375 -4.265625 C 20.695312 -3.554688 21.015625 -2.816406 21.390625 -2.046875 C 21.773438 -1.285156 22.140625 -0.601562 22.484375 0 L 17.5625 0 C 17.5625 -0.5625 17.445312 -1.226562 17.21875 -2 C 17 -2.78125 16.757812 -3.515625 16.5 -4.203125 C 16.21875 -5.023438 15.890625 -5.75 15.515625 -6.375 C 15.148438 -7 14.632812 -7.515625 13.96875 -7.921875 C 13.21875 -8.398438 12.367188 -8.71875 11.421875 -8.875 C 10.472656 -9.039062 9.519531 -9.050781 8.5625 -8.90625 C 7.613281 -8.769531 6.765625 -8.472656 6.015625 -8.015625 C 5.265625 -7.585938 4.703125 -7.054688 4.328125 -6.421875 C 3.960938 -5.785156 3.628906 -5.066406 3.328125 -4.265625 C 2.921875 -3.128906 3.222656 -1.707031 4.234375 0 L 0 0 C 0.363281 -0.601562 0.722656 -1.285156 1.078125 -2.046875 C 1.441406 -2.816406 1.75 -3.554688 2 -4.265625 L 9.21875 -24.265625 Z M 14.8125 -8.890625 L 9.890625 -22.375 L 5.015625 -8.890625 C 5.960938 -9.492188 7.007812 -9.898438 8.15625 -10.109375 C 9.3125 -10.316406 10.472656 -10.316406 11.640625 -10.109375 C 12.804688 -9.898438 13.863281 -9.492188 14.8125 -8.890625 Z M 14.8125 -8.890625 "/></g></g></g><g fill="#1a1a1a" fill-opacity="1"><g transform="translate(102.66219, 248.142344)"><g><path d="M 2.0625 1.109375 L 2.984375 -5.453125 L 3.546875 -5.140625 L 2.703125 0.515625 L 2.71875 0.515625 L 6.953125 -3.3125 L 7.515625 -3 L 2.5625 1.375 Z M 2.0625 1.109375 "/></g></g></g><g fill="#1a1a1a" fill-opacity="1"><g transform="translate(109.733348, 251.852507)"><g><path d="M 0.5 0.25 L 3.234375 -5.3125 L 3.765625 -5.046875 L 1.03125 0.515625 Z M 0.5 0.25 "/></g></g></g><g fill="#1a1a1a" fill-opacity="1"><g transform="translate(113.71434, 253.790615)"><g><path d="M 0.484375 0.21875 L 3.03125 -5.4375 L 3.578125 -5.1875 L 1.234375 0.015625 L 4.296875 1.390625 L 4.09375 1.84375 Z M 0.484375 0.21875 "/></g></g></g><g fill="#1a1a1a" fill-opacity="1"><g transform="translate(120.506114, 256.789091)"><g><path d="M 0.5 0.203125 L 2.8125 -5.5625 L 3.359375 -5.34375 L 1.234375 -0.046875 L 4.34375 1.203125 L 4.15625 1.671875 Z M 0.5 0.203125 "/></g></g></g><g fill="#1a1a1a" fill-opacity="1"><g transform="translate(127.423449, 259.502149)"><g><path d="M 0.046875 0.015625 L 4.296875 -5.078125 L 4.90625 -4.859375 L 5.09375 1.78125 L 4.515625 1.578125 L 4.46875 -0.453125 L 1.90625 -1.34375 L 0.625 0.21875 Z M 2.21875 -1.75 L 4.484375 -0.953125 L 4.40625 -4.40625 L 4.390625 -4.40625 Z M 2.21875 -1.75 "/></g></g></g><g fill="#1a1a1a" fill-opacity="1"><g transform="translate(135.163105, 262.118704)"><g/></g></g><g fill="#1a1a1a" fill-opacity="1"><g transform="translate(139.571161, 263.477022)"><g><path d="M 0.515625 0.140625 L 2.09375 -5.859375 L 2.84375 -5.671875 L 3.578125 0.078125 L 3.59375 0.078125 L 7.046875 -4.546875 L 7.796875 -4.359375 L 6.21875 1.640625 L 5.671875 1.5 L 7.03125 -3.640625 L 7.015625 -3.640625 L 3.609375 0.953125 L 3.125 0.828125 L 2.453125 -4.859375 L 2.4375 -4.859375 L 1.078125 0.28125 Z M 0.515625 0.140625 "/></g></g></g><g fill="#1a1a1a" fill-opacity="1"><g transform="translate(149.007484, 265.877693)"><g><path d="M 0.046875 0.015625 L 3.625 -5.59375 L 4.25 -5.453125 L 5.28125 1.109375 L 4.671875 0.984375 L 4.375 -1.015625 L 1.71875 -1.578125 L 0.640625 0.140625 Z M 1.96875 -2.03125 L 4.328125 -1.53125 L 3.8125 -4.921875 L 3.796875 -4.921875 Z M 1.96875 -2.03125 "/></g></g></g><g fill="#1a1a1a" fill-opacity="1"><g transform="translate(157.047501, 267.503285)"><g><path d="M 0.53125 0.078125 L 1.515625 -6.046875 L 2.140625 -5.9375 L 4.765625 -0.171875 L 4.78125 -0.15625 L 5.625 -5.375 L 6.234375 -5.28125 L 5.25 0.84375 L 4.59375 0.734375 L 1.953125 -5.015625 L 1.9375 -5.03125 L 1.109375 0.171875 Z M 0.53125 0.078125 "/></g></g></g><g fill="#1a1a1a" fill-opacity="1"><g transform="translate(165.551524, 268.792481)"><g><path d="M 0.046875 0 L 3.0625 -5.90625 L 3.703125 -5.84375 L 5.359375 0.59375 L 4.75 0.53125 L 4.25 -1.4375 L 1.546875 -1.734375 L 0.65625 0.078125 Z M 1.765625 -2.203125 L 4.15625 -1.9375 L 3.328125 -5.28125 L 3.3125 -5.28125 Z M 1.765625 -2.203125 "/></g></g></g><g fill="#1a1a1a" fill-opacity="1"><g transform="translate(173.713784, 269.640106)"><g><path d="M 3.109375 0.296875 C 2.492188 0.265625 1.984375 0.0976562 1.578125 -0.203125 C 1.179688 -0.515625 0.890625 -0.921875 0.703125 -1.421875 C 0.515625 -1.921875 0.4375 -2.472656 0.46875 -3.078125 C 0.507812 -3.671875 0.65625 -4.203125 0.90625 -4.671875 C 1.15625 -5.140625 1.503906 -5.5 1.953125 -5.75 C 2.410156 -6.007812 2.957031 -6.117188 3.59375 -6.078125 C 4.050781 -6.054688 4.445312 -5.953125 4.78125 -5.765625 C 5.125 -5.585938 5.394531 -5.34375 5.59375 -5.03125 C 5.789062 -4.726562 5.910156 -4.382812 5.953125 -4 L 5.359375 -4.03125 C 5.328125 -4.300781 5.234375 -4.550781 5.078125 -4.78125 C 4.921875 -5.007812 4.71875 -5.195312 4.46875 -5.34375 C 4.21875 -5.488281 3.914062 -5.570312 3.5625 -5.59375 C 3.039062 -5.632812 2.597656 -5.539062 2.234375 -5.3125 C 1.878906 -5.082031 1.601562 -4.769531 1.40625 -4.375 C 1.21875 -3.976562 1.109375 -3.535156 1.078125 -3.046875 C 1.046875 -2.546875 1.097656 -2.085938 1.234375 -1.671875 C 1.367188 -1.253906 1.597656 -0.914062 1.921875 -0.65625 C 2.253906 -0.394531 2.675781 -0.25 3.1875 -0.21875 C 3.613281 -0.1875 3.976562 -0.253906 4.28125 -0.421875 C 4.59375 -0.597656 4.835938 -0.847656 5.015625 -1.171875 C 5.203125 -1.503906 5.304688 -1.894531 5.328125 -2.34375 L 3.4375 -2.453125 L 3.46875 -2.921875 L 5.96875 -2.765625 L 5.78125 0.359375 L 5.34375 0.328125 L 5.375 -1.109375 L 5.34375 -1.109375 C 5.25 -0.828125 5.097656 -0.578125 4.890625 -0.359375 C 4.691406 -0.140625 4.445312 0.03125 4.15625 0.15625 C 3.863281 0.28125 3.515625 0.328125 3.109375 0.296875 Z M 3.109375 0.296875 "/></g></g></g><g fill="#1a1a1a" fill-opacity="1"><g transform="translate(182.71967, 270.110748)"><g><path d="M 0.53125 0 L 0.609375 -6.203125 L 4.84375 -6.140625 L 4.84375 -5.640625 L 1.203125 -5.6875 L 1.171875 -3.5 L 4.46875 -3.453125 L 4.453125 -2.953125 L 1.15625 -3 L 1.125 -0.484375 L 4.84375 -0.4375 L 4.84375 0.0625 Z M 0.53125 0 "/></g></g></g><g fill="#1a1a1a" fill-opacity="1"><g transform="translate(190.643333, 270.163029)"><g><path d="M 0.53125 -0.015625 L 0.296875 -6.21875 L 1.078125 -6.25 L 3.4375 -0.96875 L 3.453125 -0.96875 L 5.421875 -6.421875 L 6.203125 -6.453125 L 6.4375 -0.25 L 5.859375 -0.21875 L 5.65625 -5.53125 L 5.640625 -5.53125 L 3.734375 -0.140625 L 3.234375 -0.125 L 0.921875 -5.359375 L 0.90625 -5.359375 L 1.109375 -0.046875 Z M 0.53125 -0.015625 "/></g></g></g><g fill="#1a1a1a" fill-opacity="1"><g transform="translate(200.366834, 269.699376)"><g><path d="M 0.53125 -0.046875 L -0.015625 -6.21875 L 4.203125 -6.59375 L 4.25 -6.109375 L 0.625 -5.78125 L 0.8125 -3.59375 L 4.09375 -3.890625 L 4.140625 -3.390625 L 0.859375 -3.09375 L 1.078125 -0.59375 L 4.78125 -0.921875 L 4.828125 -0.421875 Z M 0.53125 -0.046875 "/></g></g></g><g fill="#1a1a1a" fill-opacity="1"><g transform="translate(208.24473, 268.940273)"><g><path d="M 0.53125 -0.078125 L -0.3125 -6.21875 L 0.3125 -6.296875 L 4.515625 -1.546875 L 4.53125 -1.546875 L 3.8125 -6.78125 L 4.421875 -6.859375 L 5.265625 -0.71875 L 4.609375 -0.625 L 0.40625 -5.375 L 0.390625 -5.375 L 1.109375 -0.15625 Z M 0.53125 -0.078125 "/></g></g></g><g fill="#1a1a1a" fill-opacity="1"><g transform="translate(216.753753, 267.70105)"><g><path d="M 2.25 -0.421875 L 1.203125 -6.03125 L -0.875 -5.640625 L -0.953125 -6.125 L 3.78125 -7 L 3.859375 -6.515625 L 1.78125 -6.140625 L 2.828125 -0.53125 Z M 2.25 -0.421875 "/></g></g></g><g fill="#1a1a1a" fill-opacity="1"><g transform="translate(224.488576, 266.185942)"><g/></g></g><g fill="#1a1a1a" fill-opacity="1"><g transform="translate(228.972081, 265.166466)"><g><path d="M 2.6875 -0.578125 C 2.238281 -0.460938 1.804688 -0.429688 1.390625 -0.484375 C 0.984375 -0.546875 0.628906 -0.695312 0.328125 -0.9375 C 0.0234375 -1.175781 -0.191406 -1.523438 -0.328125 -1.984375 L 0.234375 -2.125 C 0.390625 -1.625 0.675781 -1.289062 1.09375 -1.125 C 1.519531 -0.957031 2.003906 -0.941406 2.546875 -1.078125 C 3.066406 -1.210938 3.421875 -1.429688 3.609375 -1.734375 C 3.804688 -2.046875 3.859375 -2.363281 3.765625 -2.6875 C 3.691406 -2.976562 3.5625 -3.191406 3.375 -3.328125 C 3.1875 -3.460938 2.929688 -3.535156 2.609375 -3.546875 C 2.296875 -3.554688 1.921875 -3.550781 1.484375 -3.53125 C 1.085938 -3.488281 0.734375 -3.492188 0.421875 -3.546875 C 0.109375 -3.609375 -0.148438 -3.726562 -0.359375 -3.90625 C -0.566406 -4.082031 -0.710938 -4.335938 -0.796875 -4.671875 C -0.890625 -5.015625 -0.878906 -5.320312 -0.765625 -5.59375 C -0.648438 -5.863281 -0.453125 -6.09375 -0.171875 -6.28125 C 0.0976562 -6.476562 0.425781 -6.625 0.8125 -6.71875 C 1.226562 -6.832031 1.609375 -6.859375 1.953125 -6.796875 C 2.304688 -6.742188 2.613281 -6.609375 2.875 -6.390625 C 3.132812 -6.179688 3.328125 -5.898438 3.453125 -5.546875 L 2.875 -5.390625 C 2.738281 -5.765625 2.503906 -6.035156 2.171875 -6.203125 C 1.835938 -6.367188 1.425781 -6.382812 0.9375 -6.25 C 0.507812 -6.144531 0.1875 -5.960938 -0.03125 -5.703125 C -0.25 -5.453125 -0.316406 -5.164062 -0.234375 -4.84375 C -0.160156 -4.570312 -0.0390625 -4.378906 0.125 -4.265625 C 0.289062 -4.160156 0.507812 -4.097656 0.78125 -4.078125 C 1.0625 -4.054688 1.382812 -4.0625 1.75 -4.09375 C 2.21875 -4.113281 2.625 -4.097656 2.96875 -4.046875 C 3.320312 -4.003906 3.617188 -3.890625 3.859375 -3.703125 C 4.097656 -3.515625 4.265625 -3.238281 4.359375 -2.875 C 4.441406 -2.550781 4.429688 -2.234375 4.328125 -1.921875 C 4.234375 -1.609375 4.050781 -1.335938 3.78125 -1.109375 C 3.507812 -0.878906 3.144531 -0.703125 2.6875 -0.578125 Z M 2.6875 -0.578125 "/></g></g></g><g fill="#1a1a1a" fill-opacity="1"><g transform="translate(236.667706, 263.093046)"><g><path d="M 2.1875 -0.6875 L 1.453125 -3.0625 L -1.796875 -5.9375 L -1.15625 -6.140625 L 1.5625 -3.671875 L 1.578125 -3.671875 L 2.421875 -7.25 L 3.0625 -7.453125 L 2.03125 -3.234375 L 2.765625 -0.859375 Z M 2.1875 -0.6875 "/></g></g></g><g fill="#1a1a1a" fill-opacity="1"><g transform="translate(244.235826, 260.677792)"><g><path d="M 2.625 -0.828125 C 2.175781 -0.671875 1.75 -0.601562 1.34375 -0.625 C 0.9375 -0.644531 0.566406 -0.757812 0.234375 -0.96875 C -0.0859375 -1.175781 -0.335938 -1.5 -0.515625 -1.9375 L 0.046875 -2.140625 C 0.253906 -1.660156 0.570312 -1.351562 1 -1.21875 C 1.4375 -1.082031 1.921875 -1.113281 2.453125 -1.3125 C 2.941406 -1.488281 3.269531 -1.738281 3.4375 -2.0625 C 3.601562 -2.382812 3.628906 -2.703125 3.515625 -3.015625 C 3.410156 -3.296875 3.253906 -3.492188 3.046875 -3.609375 C 2.847656 -3.722656 2.59375 -3.773438 2.28125 -3.765625 C 1.96875 -3.753906 1.59375 -3.710938 1.15625 -3.640625 C 0.769531 -3.578125 0.414062 -3.554688 0.09375 -3.578125 C -0.21875 -3.609375 -0.484375 -3.703125 -0.703125 -3.859375 C -0.929688 -4.015625 -1.109375 -4.253906 -1.234375 -4.578125 C -1.347656 -4.910156 -1.359375 -5.210938 -1.265625 -5.484375 C -1.179688 -5.765625 -1.007812 -6.015625 -0.75 -6.234375 C -0.488281 -6.453125 -0.171875 -6.628906 0.203125 -6.765625 C 0.597656 -6.910156 0.972656 -6.972656 1.328125 -6.953125 C 1.679688 -6.929688 2 -6.828125 2.28125 -6.640625 C 2.5625 -6.453125 2.773438 -6.179688 2.921875 -5.828125 L 2.359375 -5.625 C 2.179688 -6 1.925781 -6.25 1.59375 -6.375 C 1.257812 -6.507812 0.851562 -6.488281 0.375 -6.3125 C -0.0390625 -6.164062 -0.347656 -5.957031 -0.546875 -5.6875 C -0.742188 -5.414062 -0.785156 -5.125 -0.671875 -4.8125 C -0.578125 -4.550781 -0.4375 -4.367188 -0.25 -4.265625 C -0.0703125 -4.171875 0.148438 -4.125 0.421875 -4.125 C 0.703125 -4.132812 1.023438 -4.171875 1.390625 -4.234375 C 1.847656 -4.296875 2.25 -4.316406 2.59375 -4.296875 C 2.9375 -4.285156 3.234375 -4.195312 3.484375 -4.03125 C 3.742188 -3.863281 3.941406 -3.601562 4.078125 -3.25 C 4.191406 -2.9375 4.210938 -2.625 4.140625 -2.3125 C 4.066406 -2 3.90625 -1.710938 3.65625 -1.453125 C 3.40625 -1.191406 3.0625 -0.984375 2.625 -0.828125 Z M 2.625 -0.828125 "/></g></g></g><g fill="#1a1a1a" fill-opacity="1"><g transform="translate(251.709995, 257.91141)"><g><path d="M 2.109375 -0.875 L -0.078125 -6.140625 L -2.03125 -5.328125 L -2.21875 -5.796875 L 2.234375 -7.640625 L 2.421875 -7.171875 L 0.46875 -6.359375 L 2.65625 -1.09375 Z M 2.109375 -0.875 "/></g></g></g><g fill="#1a1a1a" fill-opacity="1"><g transform="translate(258.994101, 254.831031)"><g><path d="M 0.484375 -0.21875 L -2.140625 -5.84375 L 1.6875 -7.640625 L 1.890625 -7.1875 L -1.40625 -5.65625 L -0.46875 -3.671875 L 2.515625 -5.0625 L 2.71875 -4.609375 L -0.265625 -3.21875 L 0.796875 -0.9375 L 4.171875 -2.5 L 4.390625 -2.046875 Z M 0.484375 -0.21875 "/></g></g></g><g fill="#1a1a1a" fill-opacity="1"><g transform="translate(266.15094, 251.429401)"><g><path d="M 0.46875 -0.25 L -2.4375 -5.734375 L -1.75 -6.09375 L 2.671875 -2.375 L 2.6875 -2.390625 L 2.09375 -8.140625 L 2.78125 -8.5 L 5.6875 -3.015625 L 5.171875 -2.75 L 2.6875 -7.4375 L 2.671875 -7.421875 L 3.296875 -1.75 L 2.859375 -1.515625 L -1.484375 -5.21875 L -1.5 -5.203125 L 0.984375 -0.515625 Z M 0.46875 -0.25 "/></g></g></g><g fill="#1a1a1a" fill-opacity="1"><g transform="translate(166.294784, 249.993164)"><g><path d="M 0.40625 0 L 0.40625 -4.8125 L 3.703125 -4.8125 L 3.703125 -4.421875 L 0.875 -4.421875 L 0.875 -2.734375 L 3.4375 -2.734375 L 3.4375 -2.34375 L 0.875 -2.34375 L 0.875 -0.390625 L 3.75 -0.390625 L 3.75 0 Z M 0.40625 0 "/></g></g></g><g fill="#1a1a1a" fill-opacity="1"><g transform="translate(172.34883, 249.993164)"><g><path d="M 2.140625 0.078125 C 1.773438 0.078125 1.441406 0.0195312 1.140625 -0.09375 C 0.847656 -0.21875 0.609375 -0.398438 0.421875 -0.640625 C 0.242188 -0.890625 0.148438 -1.195312 0.140625 -1.5625 L 0.59375 -1.5625 C 0.625 -1.144531 0.773438 -0.832031 1.046875 -0.625 C 1.328125 -0.414062 1.691406 -0.3125 2.140625 -0.3125 C 2.546875 -0.3125 2.847656 -0.40625 3.046875 -0.59375 C 3.253906 -0.78125 3.359375 -1.003906 3.359375 -1.265625 C 3.359375 -1.503906 3.296875 -1.691406 3.171875 -1.828125 C 3.054688 -1.960938 2.882812 -2.066406 2.65625 -2.140625 C 2.425781 -2.222656 2.144531 -2.296875 1.8125 -2.359375 C 1.507812 -2.410156 1.242188 -2.484375 1.015625 -2.578125 C 0.796875 -2.679688 0.625 -2.820312 0.5 -3 C 0.375 -3.175781 0.3125 -3.394531 0.3125 -3.65625 C 0.3125 -3.9375 0.378906 -4.164062 0.515625 -4.34375 C 0.660156 -4.53125 0.851562 -4.664062 1.09375 -4.75 C 1.34375 -4.84375 1.617188 -4.890625 1.921875 -4.890625 C 2.253906 -4.890625 2.546875 -4.832031 2.796875 -4.71875 C 3.054688 -4.613281 3.265625 -4.457031 3.421875 -4.25 C 3.578125 -4.039062 3.660156 -3.785156 3.671875 -3.484375 L 3.21875 -3.484375 C 3.1875 -3.796875 3.0625 -4.046875 2.84375 -4.234375 C 2.632812 -4.421875 2.328125 -4.515625 1.921875 -4.515625 C 1.585938 -4.515625 1.3125 -4.441406 1.09375 -4.296875 C 0.882812 -4.148438 0.78125 -3.945312 0.78125 -3.6875 C 0.78125 -3.46875 0.832031 -3.296875 0.9375 -3.171875 C 1.039062 -3.054688 1.191406 -2.96875 1.390625 -2.90625 C 1.597656 -2.84375 1.84375 -2.785156 2.125 -2.734375 C 2.476562 -2.660156 2.78125 -2.566406 3.03125 -2.453125 C 3.289062 -2.347656 3.488281 -2.203125 3.625 -2.015625 C 3.757812 -1.835938 3.828125 -1.597656 3.828125 -1.296875 C 3.828125 -1.035156 3.757812 -0.800781 3.625 -0.59375 C 3.5 -0.382812 3.3125 -0.21875 3.0625 -0.09375 C 2.8125 0.0195312 2.503906 0.078125 2.140625 0.078125 Z M 2.140625 0.078125 "/></g></g></g><g fill="#1a1a1a" fill-opacity="1"><g transform="translate(178.450068, 249.993164)"><g><path d="M 1.765625 0 L 1.765625 -4.421875 L 0.125 -4.421875 L 0.125 -4.8125 L 3.875 -4.8125 L 3.875 -4.421875 L 2.234375 -4.421875 L 2.234375 0 Z M 1.765625 0 "/></g></g></g><g fill="#1a1a1a" fill-opacity="1"><g transform="translate(184.504114, 249.993164)"><g><path d="M 0.5625 0.03125 C 0.488281 0.03125 0.421875 0.00390625 0.359375 -0.046875 C 0.296875 -0.0976562 0.265625 -0.171875 0.265625 -0.265625 C 0.265625 -0.347656 0.296875 -0.414062 0.359375 -0.46875 C 0.421875 -0.519531 0.488281 -0.546875 0.5625 -0.546875 C 0.644531 -0.546875 0.710938 -0.519531 0.765625 -0.46875 C 0.828125 -0.414062 0.859375 -0.347656 0.859375 -0.265625 C 0.859375 -0.171875 0.828125 -0.0976562 0.765625 -0.046875 C 0.710938 0.00390625 0.644531 0.03125 0.5625 0.03125 Z M 0.5625 0.03125 "/></g></g></g><g fill="#1a1a1a" fill-opacity="1"><g transform="translate(187.686193, 249.993164)"><g><path d="M 0.1875 0 C 0.1875 -0.4375 0.300781 -0.800781 0.53125 -1.09375 C 0.757812 -1.382812 1.050781 -1.632812 1.40625 -1.84375 C 1.675781 -2 1.921875 -2.144531 2.140625 -2.28125 C 2.359375 -2.425781 2.535156 -2.582031 2.671875 -2.75 C 2.804688 -2.925781 2.875 -3.132812 2.875 -3.375 C 2.875 -3.5625 2.832031 -3.726562 2.75 -3.875 C 2.675781 -4.019531 2.566406 -4.132812 2.421875 -4.21875 C 2.273438 -4.3125 2.097656 -4.359375 1.890625 -4.359375 C 1.648438 -4.359375 1.441406 -4.304688 1.265625 -4.203125 C 1.097656 -4.097656 0.96875 -3.957031 0.875 -3.78125 C 0.78125 -3.601562 0.734375 -3.394531 0.734375 -3.15625 L 0.296875 -3.15625 C 0.296875 -3.4375 0.351562 -3.695312 0.46875 -3.9375 C 0.59375 -4.175781 0.773438 -4.367188 1.015625 -4.515625 C 1.253906 -4.660156 1.546875 -4.734375 1.890625 -4.734375 C 2.171875 -4.734375 2.421875 -4.675781 2.640625 -4.5625 C 2.859375 -4.457031 3.023438 -4.304688 3.140625 -4.109375 C 3.253906 -3.910156 3.3125 -3.675781 3.3125 -3.40625 C 3.3125 -3.144531 3.253906 -2.921875 3.140625 -2.734375 C 3.035156 -2.554688 2.894531 -2.394531 2.71875 -2.25 C 2.539062 -2.113281 2.347656 -1.988281 2.140625 -1.875 C 1.941406 -1.757812 1.742188 -1.632812 1.546875 -1.5 C 1.359375 -1.363281 1.191406 -1.207031 1.046875 -1.03125 C 0.910156 -0.851562 0.816406 -0.640625 0.765625 -0.390625 L 0.765625 -0.375 L 3.3125 -0.375 L 3.3125 0 Z M 0.1875 0 "/></g></g></g><g fill="#1a1a1a" fill-opacity="1"><g transform="translate(193.288546, 249.993164)"><g><path d="M 2 0.078125 C 1.601562 0.078125 1.273438 -0.03125 1.015625 -0.25 C 0.753906 -0.46875 0.5625 -0.753906 0.4375 -1.109375 C 0.3125 -1.472656 0.25 -1.878906 0.25 -2.328125 C 0.25 -2.660156 0.28125 -2.96875 0.34375 -3.25 C 0.414062 -3.539062 0.523438 -3.796875 0.671875 -4.015625 C 0.816406 -4.242188 1 -4.421875 1.21875 -4.546875 C 1.445312 -4.671875 1.707031 -4.734375 2 -4.734375 C 2.300781 -4.734375 2.5625 -4.671875 2.78125 -4.546875 C 3.007812 -4.421875 3.195312 -4.242188 3.34375 -4.015625 C 3.488281 -3.796875 3.59375 -3.539062 3.65625 -3.25 C 3.726562 -2.96875 3.765625 -2.660156 3.765625 -2.328125 C 3.765625 -1.878906 3.703125 -1.472656 3.578125 -1.109375 C 3.453125 -0.753906 3.257812 -0.46875 3 -0.25 C 2.738281 -0.03125 2.40625 0.078125 2 0.078125 Z M 2 -0.296875 C 2.3125 -0.296875 2.5625 -0.382812 2.75 -0.5625 C 2.945312 -0.738281 3.085938 -0.976562 3.171875 -1.28125 C 3.265625 -1.59375 3.3125 -1.941406 3.3125 -2.328125 C 3.3125 -2.710938 3.265625 -3.054688 3.171875 -3.359375 C 3.085938 -3.671875 2.945312 -3.914062 2.75 -4.09375 C 2.5625 -4.269531 2.3125 -4.359375 2 -4.359375 C 1.707031 -4.359375 1.460938 -4.269531 1.265625 -4.09375 C 1.066406 -3.914062 0.921875 -3.671875 0.828125 -3.359375 C 0.734375 -3.054688 0.6875 -2.710938 0.6875 -2.328125 C 0.6875 -1.941406 0.734375 -1.59375 0.828125 -1.28125 C 0.921875 -0.976562 1.066406 -0.738281 1.265625 -0.5625 C 1.460938 -0.382812 1.707031 -0.296875 2 -0.296875 Z M 2 -0.296875 "/></g></g></g><g fill="#1a1a1a" fill-opacity="1"><g transform="translate(199.349329, 249.993164)"><g><path d="M 0.1875 0 C 0.1875 -0.4375 0.300781 -0.800781 0.53125 -1.09375 C 0.757812 -1.382812 1.050781 -1.632812 1.40625 -1.84375 C 1.675781 -2 1.921875 -2.144531 2.140625 -2.28125 C 2.359375 -2.425781 2.535156 -2.582031 2.671875 -2.75 C 2.804688 -2.925781 2.875 -3.132812 2.875 -3.375 C 2.875 -3.5625 2.832031 -3.726562 2.75 -3.875 C 2.675781 -4.019531 2.566406 -4.132812 2.421875 -4.21875 C 2.273438 -4.3125 2.097656 -4.359375 1.890625 -4.359375 C 1.648438 -4.359375 1.441406 -4.304688 1.265625 -4.203125 C 1.097656 -4.097656 0.96875 -3.957031 0.875 -3.78125 C 0.78125 -3.601562 0.734375 -3.394531 0.734375 -3.15625 L 0.296875 -3.15625 C 0.296875 -3.4375 0.351562 -3.695312 0.46875 -3.9375 C 0.59375 -4.175781 0.773438 -4.367188 1.015625 -4.515625 C 1.253906 -4.660156 1.546875 -4.734375 1.890625 -4.734375 C 2.171875 -4.734375 2.421875 -4.675781 2.640625 -4.5625 C 2.859375 -4.457031 3.023438 -4.304688 3.140625 -4.109375 C 3.253906 -3.910156 3.3125 -3.675781 3.3125 -3.40625 C 3.3125 -3.144531 3.253906 -2.921875 3.140625 -2.734375 C 3.035156 -2.554688 2.894531 -2.394531 2.71875 -2.25 C 2.539062 -2.113281 2.347656 -1.988281 2.140625 -1.875 C 1.941406 -1.757812 1.742188 -1.632812 1.546875 -1.5 C 1.359375 -1.363281 1.191406 -1.207031 1.046875 -1.03125 C 0.910156 -0.851562 0.816406 -0.640625 0.765625 -0.390625 L 0.765625 -0.375 L 3.3125 -0.375 L 3.3125 0 Z M 0.1875 0 "/></g></g></g><g fill="#1a1a1a" fill-opacity="1"><g transform="translate(204.951683, 249.993164)"><g><path d="M 2.4375 0 L 2.4375 -1.171875 L 0.15625 -1.171875 L 0.15625 -1.59375 L 2.4375 -4.65625 L 2.890625 -4.65625 L 2.890625 -1.53125 L 3.59375 -1.53125 L 3.59375 -1.171875 L 2.890625 -1.171875 L 2.890625 0 Z M 0.546875 -1.53125 L 2.4375 -1.53125 L 2.4375 -4.09375 Z M 0.546875 -1.53125 "/></g></g></g></svg>